<svg width="24" height="24" viewBox="0 0 24 24" fill="none" xmlns="http://www.w3.org/2000/svg">
<path d="M17.1801 6.96931L17.1695 6.95872L17.1585 6.94856C15.9247 5.81166 14.4214 5.0671 12.7924 4.89059V4.88757C14.6897 5.07835 16.3698 5.98617 17.5342 7.34817C17.421 7.21821 17.3029 7.09186 17.1801 6.96931ZM4.87878 12.0001C4.87878 8.26842 7.6583 5.2552 11.2924 4.88775V4.88987C7.71819 5.27065 4.88136 8.33749 4.88136 12.0001C4.88136 12.5161 4.93338 13.0196 5.03266 13.5052C4.93178 13.0195 4.87878 12.516 4.87878 12.0001ZM14.5837 18.7972C13.796 19.0902 12.94 19.2501 12.0424 19.2501C12.9365 19.2501 13.7928 19.0898 14.5837 18.7972Z" fill="#889098" stroke="#889098" stroke-width="1.5"/>
<path d="M2.62627 13.2998C2.42592 13.9998 2.22558 14.7998 2.12541 15.4998C1.82489 17.0998 2.82661 18.7998 4.42936 19.1998C5.23073 19.3998 6.03211 19.5998 6.73331 19.7998C4.32919 18.2998 3.02695 16.0998 2.62627 13.2998Z" fill="#889098"/>
<path d="M17.3516 4.1001C18.4535 4.9001 19.355 5.8001 20.1564 6.9001C20.8576 8.0001 21.2583 9.3001 21.4586 10.6001C21.6589 9.9001 21.8593 9.1001 21.9595 8.4001C22.26 6.8001 21.4586 5.3001 19.8559 4.8001C19.1547 4.5001 18.2531 4.3001 17.3516 4.1001Z" fill="#889098"/>
<path d="M19.956 17.2998C18.3532 19.5998 16.1495 20.9998 13.4448 21.3998C14.146 21.5998 14.9474 21.7998 15.6486 21.8998C15.8489 21.8998 16.0493 21.9998 16.2496 21.9998C17.5519 21.9998 18.8541 21.1998 19.2548 19.7998C19.5553 18.9998 19.7556 18.1998 19.956 17.2998Z" fill="#889098"/>
<path d="M7.83514 2C6.53291 2 5.33085 2.8 4.82999 4C4.52947 4.9 4.32913 5.8 4.12878 6.7C5.73153 4.3 7.93531 3 10.7401 2.6C10.6399 2.6 10.6399 2.6 10.5398 2.5C9.83857 2.4 9.13737 2.2 8.43617 2.1C8.23583 2 8.03548 2 7.83514 2Z" fill="#889098"/>
<path d="M12.1425 12.4001C12.0425 12.3001 12.0425 12.3001 12.0425 12.2001C12.0425 12.2001 12.0425 12.1001 12.1425 12.1001C12.2425 12.1001 12.2425 12.2001 12.2425 12.2001C12.2425 12.3001 12.2425 12.4001 12.1425 12.4001Z" fill="#889098"/>
<path d="M12.1427 11.3002C11.742 11.3002 11.3413 11.6002 11.2411 12.0002C11.1409 12.5002 11.4415 13.0002 11.9423 13.1002C12.0425 13.1002 12.0425 13.1002 12.1427 13.1002C12.5433 13.1002 12.944 12.8002 13.0442 12.3002C13.1444 11.8002 12.8439 11.3002 12.343 11.2002C12.343 11.3002 12.2428 11.3002 12.1427 11.3002Z" fill="#889098"/>
<path d="M15.5485 9.8999C15.3482 9.8999 15.0477 9.9999 15.0477 10.2999C14.9475 10.4999 15.1478 10.7999 15.4484 10.7999C15.6487 10.8999 15.9492 10.6999 15.9492 10.3999C15.9492 10.1999 15.849 9.9999 15.5485 9.8999Z" fill="#889098" stroke="#889098" stroke-width="1.6666" stroke-linecap="round" stroke-linejoin="round"/>
<path d="M14.5468 14.7999C14.3465 14.6999 14.046 14.8999 14.046 15.1999C13.9458 15.3999 14.1461 15.6999 14.4466 15.6999C14.647 15.7999 14.9475 15.5999 14.9475 15.2999C14.9475 15.0999 14.8473 14.8999 14.5468 14.7999Z" fill="#889098" stroke="#889098" stroke-width="1.6666" stroke-linecap="round" stroke-linejoin="round"/>
<path d="M8.83697 13.6998C8.63663 13.5998 8.33612 13.7998 8.33612 14.0998C8.23594 14.2998 8.43629 14.5998 8.7368 14.5998C8.93715 14.6998 9.23766 14.4998 9.23766 14.1998C9.23766 13.9998 9.03732 13.6998 8.83697 13.6998Z" fill="#889098" stroke="#889098" stroke-width="1.6666" stroke-linecap="round" stroke-linejoin="round"/>
<path d="M9.83866 8.80004C9.63832 8.70004 9.3378 8.90004 9.3378 9.10004C9.23763 9.40004 9.43797 9.60004 9.63832 9.70004C9.83866 9.80004 10.1392 9.60004 10.1392 9.30004C10.2393 9.10004 10.1392 8.80004 9.83866 8.80004Z" fill="#889098" stroke="#889098" stroke-width="1.6666" stroke-linecap="round" stroke-linejoin="round"/>
</svg>
