<svg width="24" height="24" viewBox="0 0 24 24" fill="none" xmlns="http://www.w3.org/2000/svg">
<path d="M7.80005 3.2002H16.8C19.3 3.2002 21.3 5.2002 21.3 7.7002V16.7002C21.3 19.2002 19.3 21.2002 16.8 21.2002H7.80005C5.30005 21.2002 3.30005 19.2002 3.30005 16.7002V7.7002C3.30005 5.2002 5.30005 3.2002 7.80005 3.2002Z" stroke="#889098" stroke-width="1.5" stroke-linecap="round" stroke-linejoin="round"/>
<path d="M8.3999 11.2998V16.6998" stroke="#889098" stroke-width="1.5" stroke-linecap="round" stroke-linejoin="round"/>
<path d="M12 16.6998V13.4998C12 12.2998 13 11.2998 14.2 11.2998C15.4 11.2998 16.4 12.2998 16.4 13.4998V16.6998" stroke="#889098" stroke-width="1.5" stroke-linecap="round" stroke-linejoin="round"/>
<path d="M8.37404 8C8.16647 8 7.99801 8.16661 8.00002 8.3719C7.99901 8.57719 8.16748 8.7438 8.37504 8.7438C8.58261 8.7438 8.75107 8.57719 8.75107 8.3719C8.75107 8.16661 8.58261 8 8.37404 8" stroke="#889098" stroke-width="1.5" stroke-linecap="round" stroke-linejoin="round"/>
</svg>
