<svg width="24" height="25" viewBox="0 0 24 25" fill="none" xmlns="http://www.w3.org/2000/svg">
<path d="M18.965 16.6812L17.792 15.5032C17.206 14.9147 16.256 14.9147 15.671 15.5032L14.749 16.4291C14.543 16.636 14.231 16.7053 13.965 16.5878C12.629 16.0003 11.309 15.1095 10.132 13.9274C8.96002 12.7504 8.07602 11.4308 7.49002 10.0941C7.36802 9.81787 7.43902 9.49349 7.65202 9.27957L8.47802 8.45003C9.14902 7.77615 9.14902 6.82308 8.56302 6.23456L7.39002 5.05653C6.60902 4.27217 5.34302 4.27217 4.56202 5.05653L3.91002 5.71032C3.16902 6.4545 2.86002 7.52809 3.06002 8.59264C3.55402 11.2169 5.07202 14.0901 7.52102 16.5496C9.97002 19.0092 12.831 20.5337 15.444 21.0298C16.504 21.2306 17.573 20.9203 18.314 20.1761L18.965 19.5223C19.746 18.738 19.746 17.4666 18.965 16.6812V16.6812Z" stroke="#889098" stroke-width="1.5" stroke-linecap="round" stroke-linejoin="round"/>
<path d="M13 7.02088C14.031 7.00682 15.067 7.39046 15.854 8.18084" stroke="#889098" stroke-width="1.5" stroke-linecap="round" stroke-linejoin="round"/>
<path d="M18.682 5.34067C17.113 3.76493 15.056 2.97656 13 2.97656" stroke="#889098" stroke-width="1.5" stroke-linecap="round" stroke-linejoin="round"/>
<path d="M17.009 11.0469C17.023 10.0115 16.641 8.97104 15.854 8.18066" stroke="#889098" stroke-width="1.5" stroke-linecap="round" stroke-linejoin="round"/>
<path d="M18.682 5.34082C20.251 6.91655 21.036 8.98238 21.036 11.0472" stroke="#889098" stroke-width="1.5" stroke-linecap="round" stroke-linejoin="round"/>
</svg>
