<svg width="24" height="24" viewBox="0 0 24 24" fill="none" xmlns="http://www.w3.org/2000/svg">
<path d="M3 7.08621C3 7.65357 3.293 8.18445 3.782 8.50221L9.763 12.3931C11.118 13.2744 12.896 13.2744 14.251 12.3931L20.217 8.51085C20.707 8.19405 21 7.66317 21 7.09581V7.08621C21 6.14157 20.202 5.37549 19.218 5.37549H4.782C3.798 5.37549 3 6.14157 3 7.08621V7.08621Z" stroke="#889098" stroke-width="1.5" stroke-linecap="round" stroke-linejoin="round"/>
<path d="M3 7.29541V16.8954C3 17.9562 3.895 18.8154 5 18.8154H19C20.105 18.8154 21 17.9562 21 16.8954V7.29541" stroke="#889098" stroke-width="1.5" stroke-linecap="round" stroke-linejoin="round"/>
<path d="M3.58606 18.2528L9.72606 12.3584" stroke="#889098" stroke-width="1.5" stroke-linecap="round" stroke-linejoin="round"/>
<path d="M14.281 12.3652L20.411 18.25" stroke="#889098" stroke-width="1.5" stroke-linecap="round" stroke-linejoin="round"/>
</svg>
