<svg width="24" height="24" viewBox="0 0 24 24" fill="none" xmlns="http://www.w3.org/2000/svg">
<path d="M7.5 3H16.5C19 3 21 5 21 7.5V16.5C21 19 19 21 16.5 21H7.5C5 21 3 19 3 16.5V7.5C3 5 5 3 7.5 3Z" stroke="#889098" stroke-width="1.5" stroke-linecap="round" stroke-linejoin="round"/>
<path d="M14.5001 9.49993C15.9001 10.8999 15.9001 13.1999 14.5001 14.5999C13.1001 15.9999 10.8001 15.9999 9.4001 14.5999C8.0001 13.1999 8.0001 10.8999 9.4001 9.49993C10.8001 8.09993 13.1001 7.99993 14.5001 9.49993Z" stroke="#889098" stroke-width="1.5" stroke-linecap="round" stroke-linejoin="round"/>
<path d="M17.374 7C17.1665 7 16.998 7.16661 17 7.3719C16.999 7.57719 17.1675 7.7438 17.375 7.7438C17.5826 7.7438 17.7511 7.57719 17.7511 7.3719C17.7511 7.16661 17.5826 7 17.374 7" stroke="#889098" stroke-width="1.5" stroke-linecap="round" stroke-linejoin="round"/>
</svg>
