<svg width="96" height="21" viewBox="0 0 96 21" fill="none" xmlns="http://www.w3.org/2000/svg">
<g clip-path="url(#clip0_4803_17878)">
<path d="M44.426 18.0476H44.426C43.8109 18.367 43.0519 18.1299 42.7308 17.5179C42.6024 17.273 42.559 16.9928 42.6076 16.7209L43.2852 12.8567L40.4323 10.1367C39.9301 9.66029 39.9113 8.86906 40.3901 8.36946C40.5856 8.16557 40.8445 8.03334 41.125 7.99424L45.086 7.4309L46.8743 3.88173C47.1824 3.26318 47.9362 3.01024 48.558 3.3168C48.8043 3.43824 49.0037 3.63669 49.1258 3.88173L50.9141 7.4309L54.8751 7.99424C55.5623 8.09006 56.0413 8.72197 55.945 9.40564C55.9057 9.68466 55.7728 9.94229 55.5678 10.1367L52.715 12.8567L53.3926 16.7217C53.5139 17.4015 53.0584 18.0503 52.3752 18.171C52.1019 18.2193 51.8202 18.1762 51.5741 18.0484L48.0001 16.2109L44.426 18.0476Z" fill="#F2ADA9"/>
</g>
<g clip-path="url(#clip1_4803_17878)">
<path d="M6.47727 18.0476H6.47727C5.86213 18.367 5.10316 18.1299 4.78208 17.5179C4.65363 17.273 4.61029 16.9928 4.65882 16.7209L5.33645 12.8567L2.48356 10.1367C1.9814 9.66029 1.96253 8.86906 2.44141 8.36946C2.63685 8.16557 2.8958 8.03334 3.17626 7.99424L7.1373 7.4309L8.92559 3.88173C9.23372 3.26318 9.98752 3.01024 10.6092 3.3168C10.8555 3.43824 11.055 3.63669 11.1771 3.88173L12.9654 7.4309L16.9264 7.99424C17.6136 8.09006 18.0926 8.72197 17.9963 9.40564C17.957 9.68466 17.8241 9.94229 17.6191 10.1367L14.7662 12.8567L15.4438 16.7217C15.5652 17.4015 15.1097 18.0503 14.4265 18.171C14.1532 18.2193 13.8715 18.1762 13.6254 18.0484L10.0513 16.2109L6.47727 18.0476Z" fill="#F2ADA9"/>
</g>
<g clip-path="url(#clip2_4803_17878)">
<path d="M25.9643 18.0476H25.9643C25.3492 18.367 24.5902 18.1299 24.2691 17.5179C24.1407 17.273 24.0974 16.9928 24.1459 16.7209L24.8235 12.8567L21.9706 10.1367C21.4685 9.66029 21.4496 8.86906 21.9285 8.36946C22.1239 8.16557 22.3829 8.03334 22.6633 7.99424L26.6244 7.4309L28.4127 3.88173C28.7208 3.26318 29.4746 3.01024 30.0963 3.3168C30.3426 3.43824 30.5421 3.63669 30.6641 3.88173L32.4524 7.4309L36.4135 7.99424C37.1006 8.09006 37.5796 8.72197 37.4833 9.40564C37.444 9.68466 37.3111 9.94229 37.1062 10.1367L34.2533 12.8567L34.9309 16.7217C35.0522 17.4015 34.5967 18.0503 33.9135 18.171C33.6402 18.2193 33.3585 18.1762 33.1125 18.0484L29.5384 16.2109L25.9643 18.0476Z" fill="#F2ADA9"/>
</g>
<path d="M63.9128 18.0485H63.9128C63.2977 18.368 62.5387 18.1308 62.2176 17.5188C62.0892 17.274 62.0458 16.9938 62.0944 16.7219L62.772 12.8577L59.9191 10.1377C59.4169 9.66127 59.3981 8.87003 59.877 8.37044C60.0724 8.16655 60.3314 8.03432 60.6118 7.99521L64.5728 7.43188L66.3611 3.88271C66.6693 3.26415 67.4231 3.01122 68.0448 3.31778C68.2911 3.43922 68.4906 3.63767 68.6126 3.88271L70.4009 7.43188L74.362 7.99521C75.0491 8.09104 75.5281 8.72294 75.4318 9.40661C75.3925 9.68564 75.2596 9.94326 75.0547 10.1377L72.2018 12.8577L72.8794 16.7227C73.0007 17.4024 72.5452 18.0513 71.862 18.172C71.5887 18.2203 71.307 18.1772 71.061 18.0494L67.4869 16.2119L63.9128 18.0485Z" fill="#F2ADA9"/>
<path d="M82.3745 18.0485H82.3745C81.7593 18.368 81.0004 18.1308 80.6793 17.5188C80.5508 17.274 80.5075 16.9938 80.556 16.7219L81.2337 12.8577L78.3808 10.1377C77.8786 9.66127 77.8597 8.87003 78.3386 8.37044C78.5341 8.16655 78.793 8.03432 79.0735 7.99521L83.0345 7.43188L84.8228 3.88271C85.1309 3.26415 85.8847 3.01122 86.5065 3.31778C86.7528 3.43922 86.9522 3.63767 87.0743 3.88271L88.8626 7.43188L92.8236 7.99521C93.5108 8.09104 93.9898 8.72294 93.8935 9.40661C93.8542 9.68564 93.7213 9.94326 93.5163 10.1377L90.6634 12.8577L91.3411 16.7227C91.4624 17.4024 91.0069 18.0513 90.3237 18.172C90.0504 18.2203 89.7687 18.1772 89.5226 18.0494L85.9486 16.2119L82.3745 18.0485Z" fill="#D6E2F3"/>
<defs>
<clipPath id="clip0_4803_17878">
<rect width="20.1026" height="20" fill="white" transform="translate(37.9487 0.69043)"/>
</clipPath>
<clipPath id="clip1_4803_17878">
<rect width="20.1026" height="20" fill="white" transform="translate(0 0.69043)"/>
</clipPath>
<clipPath id="clip2_4803_17878">
<rect width="20.1026" height="20" fill="white" transform="translate(19.4871 0.69043)"/>
</clipPath>
</defs>
</svg>
