<svg width="96" height="21" viewBox="0 0 96 21" fill="none" xmlns="http://www.w3.org/2000/svg">
<g clip-path="url(#clip0_4803_18283)">
<path d="M44.4259 18.0476H44.4259C43.8107 18.367 43.0518 18.1299 42.7307 17.5179C42.6022 17.273 42.5589 16.9928 42.6074 16.7209L43.2851 12.8567L40.4322 10.1367C39.93 9.66029 39.9111 8.86906 40.39 8.36946C40.5855 8.16557 40.8444 8.03334 41.1249 7.99424L45.0859 7.4309L46.8742 3.88173C47.1823 3.26318 47.9361 3.01024 48.5579 3.3168C48.8042 3.43824 49.0036 3.63669 49.1257 3.88173L50.914 7.4309L54.875 7.99424C55.5622 8.09006 56.0412 8.72197 55.9449 9.40564C55.9056 9.68466 55.7727 9.94229 55.5677 10.1367L52.7148 12.8567L53.3925 16.7217C53.5138 17.4015 53.0583 18.0503 52.3751 18.171C52.1018 18.2193 51.8201 18.1762 51.574 18.0484L47.9999 16.2109L44.4259 18.0476Z" fill="#F2ADA9"/>
</g>
<g clip-path="url(#clip1_4803_18283)">
<path d="M6.47727 18.0476H6.47727C5.86213 18.367 5.10316 18.1299 4.78208 17.5179C4.65363 17.273 4.61029 16.9928 4.65882 16.7209L5.33645 12.8567L2.48356 10.1367C1.9814 9.66029 1.96253 8.86906 2.44141 8.36946C2.63685 8.16557 2.8958 8.03334 3.17626 7.99424L7.1373 7.4309L8.92559 3.88173C9.23372 3.26318 9.98752 3.01024 10.6092 3.3168C10.8555 3.43824 11.055 3.63669 11.1771 3.88173L12.9654 7.4309L16.9264 7.99424C17.6136 8.09006 18.0926 8.72197 17.9963 9.40564C17.957 9.68466 17.8241 9.94229 17.6191 10.1367L14.7662 12.8567L15.4438 16.7217C15.5652 17.4015 15.1097 18.0503 14.4265 18.171C14.1532 18.2193 13.8715 18.1762 13.6254 18.0484L10.0513 16.2109L6.47727 18.0476Z" fill="#F2ADA9"/>
</g>
<g clip-path="url(#clip2_4803_18283)">
<path d="M25.9642 18.0476H25.9642C25.3491 18.367 24.5901 18.1299 24.269 17.5179C24.1406 17.273 24.0972 16.9928 24.1458 16.7209L24.8234 12.8567L21.9705 10.1367C21.4683 9.66029 21.4495 8.86906 21.9284 8.36946C22.1238 8.16557 22.3827 8.03334 22.6632 7.99424L26.6242 7.4309L28.4125 3.88173C28.7207 3.26318 29.4745 3.01024 30.0962 3.3168C30.3425 3.43824 30.542 3.63669 30.664 3.88173L32.4523 7.4309L36.4133 7.99424C37.1005 8.09006 37.5795 8.72197 37.4832 9.40564C37.4439 9.68466 37.311 9.94229 37.1061 10.1367L34.2532 12.8567L34.9308 16.7217C35.0521 17.4015 34.5966 18.0503 33.9134 18.171C33.6401 18.2193 33.3584 18.1762 33.1123 18.0484L29.5383 16.2109L25.9642 18.0476Z" fill="#F2ADA9"/>
</g>
<path d="M63.9129 18.0485H63.9129C63.2978 18.368 62.5388 18.1308 62.2177 17.5188C62.0893 17.274 62.046 16.9938 62.0945 16.7219L62.7721 12.8577L59.9192 10.1377C59.4171 9.66127 59.3982 8.87003 59.8771 8.37044C60.0725 8.16655 60.3315 8.03432 60.6119 7.99521L64.573 7.43188L66.3613 3.88271C66.6694 3.26415 67.4232 3.01122 68.0449 3.31778C68.2912 3.43922 68.4907 3.63767 68.6127 3.88271L70.401 7.43188L74.3621 7.99521C75.0493 8.09104 75.5282 8.72294 75.4319 9.40661C75.3926 9.68564 75.2597 9.94326 75.0548 10.1377L72.2019 12.8577L72.8795 16.7227C73.0008 17.4024 72.5453 18.0513 71.8621 18.172C71.5888 18.2203 71.3071 18.1772 71.0611 18.0494L67.487 16.2119L63.9129 18.0485Z" fill="#F2ADA9"/>
<path d="M82.3744 18.0485H82.3744C81.7592 18.368 81.0003 18.1308 80.6792 17.5188C80.5507 17.274 80.5074 16.9938 80.5559 16.7219L81.2335 12.8577L78.3807 10.1377C77.8785 9.66127 77.8596 8.87003 78.3385 8.37044C78.5339 8.16655 78.7929 8.03432 79.0734 7.99521L83.0344 7.43188L84.8227 3.88271C85.1308 3.26415 85.8846 3.01122 86.5063 3.31778C86.7526 3.43922 86.9521 3.63767 87.0742 3.88271L88.8625 7.43188L92.8235 7.99521C93.5107 8.09104 93.9897 8.72294 93.8934 9.40661C93.8541 9.68564 93.7212 9.94326 93.5162 10.1377L90.6633 12.8577L91.3409 16.7227C91.4623 17.4024 91.0068 18.0513 90.3236 18.172C90.0503 18.2203 89.7686 18.1772 89.5225 18.0494L85.9484 16.2119L82.3744 18.0485Z" fill="#F2ADA9"/>
<defs>
<clipPath id="clip0_4803_18283">
<rect width="20.1026" height="20" fill="white" transform="translate(37.9487 0.69043)"/>
</clipPath>
<clipPath id="clip1_4803_18283">
<rect width="20.1026" height="20" fill="white" transform="translate(0 0.69043)"/>
</clipPath>
<clipPath id="clip2_4803_18283">
<rect width="20.1026" height="20" fill="white" transform="translate(19.4871 0.69043)"/>
</clipPath>
</defs>
</svg>
